<svg width="391" height="38" viewBox="0 0 391 38" fill="none" xmlns="http://www.w3.org/2000/svg">
<path d="M3.59375 7.25H6.51562L13.9688 25.7969L21.4062 7.25H24.3438L15.0938 30H12.8125L3.59375 7.25ZM2.64062 7.25H5.21875L5.64062 21.125V30H2.64062V7.25ZM22.7031 7.25H25.2812V30H22.2812V21.125L22.7031 7.25ZM34.8906 28.25L39.5938 13.0938H42.6875L35.9062 32.6094C35.75 33.026 35.5417 33.474 35.2812 33.9531C35.0312 34.4427 34.7083 34.9062 34.3125 35.3438C33.9167 35.7812 33.4375 36.1354 32.875 36.4062C32.3229 36.6875 31.6615 36.8281 30.8906 36.8281C30.6615 36.8281 30.3698 36.7969 30.0156 36.7344C29.6615 36.6719 29.4115 36.6198 29.2656 36.5781L29.25 34.2344C29.3333 34.2448 29.4635 34.2552 29.6406 34.2656C29.8281 34.2865 29.9583 34.2969 30.0312 34.2969C30.6875 34.2969 31.2448 34.2083 31.7031 34.0312C32.1615 33.8646 32.5469 33.5781 32.8594 33.1719C33.1823 32.776 33.4583 32.2292 33.6875 31.5312L34.8906 28.25ZM31.4375 13.0938L35.8281 26.2188L36.5781 29.2656L34.5 30.3281L28.2812 13.0938H31.4375Z" fill="black"/>
<path d="M58.3125 22.4531H62.9844C62.8906 23.9844 62.4688 25.3438 61.7188 26.5312C60.9792 27.7188 59.9427 28.6458 58.6094 29.3125C57.2865 29.9792 55.6927 30.3125 53.8281 30.3125C52.3698 30.3125 51.0625 30.0625 49.9062 29.5625C48.75 29.0521 47.7604 28.3229 46.9375 27.375C46.125 26.4271 45.5052 25.2812 45.0781 23.9375C44.651 22.5938 44.4375 21.0885 44.4375 19.4219V17.8438C44.4375 16.1771 44.6562 14.6719 45.0938 13.3281C45.5417 11.974 46.1771 10.8229 47 9.875C47.8333 8.92708 48.8281 8.19792 49.9844 7.6875C51.1406 7.17708 52.4323 6.92188 53.8594 6.92188C55.7552 6.92188 57.3542 7.26562 58.6562 7.95312C59.9688 8.64062 60.9844 9.58854 61.7031 10.7969C62.4323 12.0052 62.8698 13.3802 63.0156 14.9219H58.3281C58.276 14.0052 58.0938 13.2292 57.7812 12.5938C57.4688 11.9479 56.9948 11.4635 56.3594 11.1406C55.7344 10.8073 54.901 10.6406 53.8594 10.6406C53.0781 10.6406 52.3958 10.7865 51.8125 11.0781C51.2292 11.3698 50.7396 11.8125 50.3438 12.4062C49.9479 13 49.651 13.75 49.4531 14.6562C49.2656 15.5521 49.1719 16.6042 49.1719 17.8125V19.4219C49.1719 20.599 49.2604 21.6354 49.4375 22.5312C49.6146 23.4167 49.8854 24.1667 50.25 24.7812C50.625 25.3854 51.1042 25.8438 51.6875 26.1562C52.2812 26.4583 52.9948 26.6094 53.8281 26.6094C54.8073 26.6094 55.6146 26.4531 56.25 26.1406C56.8854 25.8281 57.3698 25.3646 57.7031 24.75C58.0469 24.1354 58.25 23.3698 58.3125 22.4531ZM70.1719 6V30H65.6719V6H70.1719ZM69.5312 20.9531H68.2969C68.3073 19.776 68.4635 18.6927 68.7656 17.7031C69.0677 16.7031 69.5 15.8385 70.0625 15.1094C70.625 14.3698 71.2969 13.7969 72.0781 13.3906C72.8698 12.9844 73.7448 12.7812 74.7031 12.7812C75.5365 12.7812 76.2917 12.901 76.9688 13.1406C77.6562 13.3698 78.2448 13.7448 78.7344 14.2656C79.2344 14.776 79.6198 15.4479 79.8906 16.2812C80.1615 17.1146 80.2969 18.125 80.2969 19.3125V30H75.7656V19.2812C75.7656 18.5312 75.6562 17.9427 75.4375 17.5156C75.2292 17.0781 74.9219 16.7708 74.5156 16.5938C74.1198 16.4062 73.6302 16.3125 73.0469 16.3125C72.401 16.3125 71.849 16.4323 71.3906 16.6719C70.9427 16.9115 70.5833 17.2448 70.3125 17.6719C70.0417 18.0885 69.8438 18.5781 69.7188 19.1406C69.5938 19.7031 69.5312 20.3073 69.5312 20.9531ZM91.5 30.3125C90.1875 30.3125 89.0104 30.1042 87.9688 29.6875C86.9271 29.2604 86.0417 28.6719 85.3125 27.9219C84.5938 27.1719 84.0417 26.3021 83.6562 25.3125C83.2708 24.3125 83.0781 23.25 83.0781 22.125V21.5C83.0781 20.2188 83.2604 19.0469 83.625 17.9844C83.9896 16.9219 84.5104 16 85.1875 15.2188C85.875 14.4375 86.7083 13.8385 87.6875 13.4219C88.6667 12.9948 89.7708 12.7812 91 12.7812C92.1979 12.7812 93.2604 12.9792 94.1875 13.375C95.1146 13.7708 95.8906 14.3333 96.5156 15.0625C97.151 15.7917 97.6302 16.6667 97.9531 17.6875C98.276 18.6979 98.4375 19.8229 98.4375 21.0625V22.9375H85V19.9375H94.0156V19.5938C94.0156 18.9688 93.901 18.4115 93.6719 17.9219C93.4531 17.4219 93.1198 17.026 92.6719 16.7344C92.224 16.4427 91.651 16.2969 90.9531 16.2969C90.3594 16.2969 89.849 16.4271 89.4219 16.6875C88.9948 16.9479 88.6458 17.3125 88.375 17.7812C88.1146 18.25 87.9167 18.8021 87.7812 19.4375C87.6562 20.0625 87.5938 20.75 87.5938 21.5V22.125C87.5938 22.8021 87.6875 23.4271 87.875 24C88.0729 24.5729 88.349 25.0677 88.7031 25.4844C89.0677 25.901 89.5052 26.224 90.0156 26.4531C90.5365 26.6823 91.125 26.7969 91.7812 26.7969C92.5938 26.7969 93.349 26.6406 94.0469 26.3281C94.7552 26.0052 95.3646 25.5208 95.875 24.875L98.0625 27.25C97.7083 27.7604 97.224 28.25 96.6094 28.7188C96.0052 29.1875 95.276 29.5729 94.4219 29.875C93.5677 30.1667 92.5938 30.3125 91.5 30.3125ZM110.141 25.3281C110.141 25.0052 110.047 24.7135 109.859 24.4531C109.672 24.1927 109.323 23.9531 108.812 23.7344C108.312 23.5052 107.589 23.2969 106.641 23.1094C105.786 22.9219 104.99 22.6875 104.25 22.4062C103.521 22.1146 102.885 21.7656 102.344 21.3594C101.812 20.9531 101.396 20.474 101.094 19.9219C100.792 19.3594 100.641 18.7188 100.641 18C100.641 17.2917 100.792 16.625 101.094 16C101.406 15.375 101.849 14.8229 102.422 14.3438C103.005 13.8542 103.714 13.474 104.547 13.2031C105.391 12.9219 106.339 12.7812 107.391 12.7812C108.859 12.7812 110.12 13.0156 111.172 13.4844C112.234 13.9531 113.047 14.599 113.609 15.4219C114.182 16.2344 114.469 17.1615 114.469 18.2031H109.969C109.969 17.7656 109.875 17.375 109.688 17.0312C109.51 16.6771 109.229 16.401 108.844 16.2031C108.469 15.9948 107.979 15.8906 107.375 15.8906C106.875 15.8906 106.443 15.9792 106.078 16.1562C105.714 16.3229 105.432 16.5521 105.234 16.8438C105.047 17.125 104.953 17.4375 104.953 17.7812C104.953 18.0417 105.005 18.276 105.109 18.4844C105.224 18.6823 105.406 18.8646 105.656 19.0312C105.906 19.1979 106.229 19.3542 106.625 19.5C107.031 19.6354 107.531 19.7604 108.125 19.875C109.344 20.125 110.432 20.4531 111.391 20.8594C112.349 21.2552 113.109 21.7969 113.672 22.4844C114.234 23.1615 114.516 24.0521 114.516 25.1562C114.516 25.9062 114.349 26.5938 114.016 27.2188C113.682 27.8438 113.203 28.3906 112.578 28.8594C111.953 29.3177 111.203 29.6771 110.328 29.9375C109.464 30.1875 108.49 30.3125 107.406 30.3125C105.833 30.3125 104.5 30.0312 103.406 29.4688C102.323 28.9062 101.5 28.1927 100.938 27.3281C100.385 26.4531 100.109 25.5573 100.109 24.6406H104.375C104.396 25.2552 104.552 25.75 104.844 26.125C105.146 26.5 105.526 26.7708 105.984 26.9375C106.453 27.1042 106.958 27.1875 107.5 27.1875C108.083 27.1875 108.568 27.1094 108.953 26.9531C109.339 26.7865 109.63 26.5677 109.828 26.2969C110.036 26.0156 110.141 25.6927 110.141 25.3281ZM126.578 25.3281C126.578 25.0052 126.484 24.7135 126.297 24.4531C126.109 24.1927 125.76 23.9531 125.25 23.7344C124.75 23.5052 124.026 23.2969 123.078 23.1094C122.224 22.9219 121.427 22.6875 120.688 22.4062C119.958 22.1146 119.323 21.7656 118.781 21.3594C118.25 20.9531 117.833 20.474 117.531 19.9219C117.229 19.3594 117.078 18.7188 117.078 18C117.078 17.2917 117.229 16.625 117.531 16C117.844 15.375 118.286 14.8229 118.859 14.3438C119.443 13.8542 120.151 13.474 120.984 13.2031C121.828 12.9219 122.776 12.7812 123.828 12.7812C125.297 12.7812 126.557 13.0156 127.609 13.4844C128.672 13.9531 129.484 14.599 130.047 15.4219C130.62 16.2344 130.906 17.1615 130.906 18.2031H126.406C126.406 17.7656 126.312 17.375 126.125 17.0312C125.948 16.6771 125.667 16.401 125.281 16.2031C124.906 15.9948 124.417 15.8906 123.812 15.8906C123.312 15.8906 122.88 15.9792 122.516 16.1562C122.151 16.3229 121.87 16.5521 121.672 16.8438C121.484 17.125 121.391 17.4375 121.391 17.7812C121.391 18.0417 121.443 18.276 121.547 18.4844C121.661 18.6823 121.844 18.8646 122.094 19.0312C122.344 19.1979 122.667 19.3542 123.062 19.5C123.469 19.6354 123.969 19.7604 124.562 19.875C125.781 20.125 126.87 20.4531 127.828 20.8594C128.786 21.2552 129.547 21.7969 130.109 22.4844C130.672 23.1615 130.953 24.0521 130.953 25.1562C130.953 25.9062 130.786 26.5938 130.453 27.2188C130.12 27.8438 129.641 28.3906 129.016 28.8594C128.391 29.3177 127.641 29.6771 126.766 29.9375C125.901 30.1875 124.927 30.3125 123.844 30.3125C122.271 30.3125 120.938 30.0312 119.844 29.4688C118.76 28.9062 117.938 28.1927 117.375 27.3281C116.823 26.4531 116.547 25.5573 116.547 24.6406H120.812C120.833 25.2552 120.99 25.75 121.281 26.125C121.583 26.5 121.964 26.7708 122.422 26.9375C122.891 27.1042 123.396 27.1875 123.938 27.1875C124.521 27.1875 125.005 27.1094 125.391 26.9531C125.776 26.7865 126.068 26.5677 126.266 26.2969C126.474 26.0156 126.578 25.6927 126.578 25.3281ZM147.344 22.4531H152.016C151.922 23.9844 151.5 25.3438 150.75 26.5312C150.01 27.7188 148.974 28.6458 147.641 29.3125C146.318 29.9792 144.724 30.3125 142.859 30.3125C141.401 30.3125 140.094 30.0625 138.938 29.5625C137.781 29.0521 136.792 28.3229 135.969 27.375C135.156 26.4271 134.536 25.2812 134.109 23.9375C133.682 22.5938 133.469 21.0885 133.469 19.4219V17.8438C133.469 16.1771 133.688 14.6719 134.125 13.3281C134.573 11.974 135.208 10.8229 136.031 9.875C136.865 8.92708 137.859 8.19792 139.016 7.6875C140.172 7.17708 141.464 6.92188 142.891 6.92188C144.786 6.92188 146.385 7.26562 147.688 7.95312C149 8.64062 150.016 9.58854 150.734 10.7969C151.464 12.0052 151.901 13.3802 152.047 14.9219H147.359C147.307 14.0052 147.125 13.2292 146.812 12.5938C146.5 11.9479 146.026 11.4635 145.391 11.1406C144.766 10.8073 143.932 10.6406 142.891 10.6406C142.109 10.6406 141.427 10.7865 140.844 11.0781C140.26 11.3698 139.771 11.8125 139.375 12.4062C138.979 13 138.682 13.75 138.484 14.6562C138.297 15.5521 138.203 16.6042 138.203 17.8125V19.4219C138.203 20.599 138.292 21.6354 138.469 22.5312C138.646 23.4167 138.917 24.1667 139.281 24.7812C139.656 25.3854 140.135 25.8438 140.719 26.1562C141.312 26.4583 142.026 26.6094 142.859 26.6094C143.839 26.6094 144.646 26.4531 145.281 26.1406C145.917 25.8281 146.401 25.3646 146.734 24.75C147.078 24.1354 147.281 23.3698 147.344 22.4531ZM159.203 6V30H154.703V6H159.203ZM158.562 20.9531H157.328C157.339 19.776 157.495 18.6927 157.797 17.7031C158.099 16.7031 158.531 15.8385 159.094 15.1094C159.656 14.3698 160.328 13.7969 161.109 13.3906C161.901 12.9844 162.776 12.7812 163.734 12.7812C164.568 12.7812 165.323 12.901 166 13.1406C166.688 13.3698 167.276 13.7448 167.766 14.2656C168.266 14.776 168.651 15.4479 168.922 16.2812C169.193 17.1146 169.328 18.125 169.328 19.3125V30H164.797V19.2812C164.797 18.5312 164.688 17.9427 164.469 17.5156C164.26 17.0781 163.953 16.7708 163.547 16.5938C163.151 16.4062 162.661 16.3125 162.078 16.3125C161.432 16.3125 160.88 16.4323 160.422 16.6719C159.974 16.9115 159.615 17.2448 159.344 17.6719C159.073 18.0885 158.875 18.5781 158.75 19.1406C158.625 19.7031 158.562 20.3073 158.562 20.9531ZM181.875 26.1875V18.6562C181.875 18.1146 181.786 17.651 181.609 17.2656C181.432 16.8698 181.156 16.5625 180.781 16.3438C180.417 16.125 179.943 16.0156 179.359 16.0156C178.859 16.0156 178.427 16.1042 178.062 16.2812C177.698 16.4479 177.417 16.6927 177.219 17.0156C177.021 17.3281 176.922 17.6979 176.922 18.125H172.422C172.422 17.4062 172.589 16.724 172.922 16.0781C173.255 15.4323 173.74 14.8646 174.375 14.375C175.01 13.875 175.766 13.4844 176.641 13.2031C177.526 12.9219 178.516 12.7812 179.609 12.7812C180.922 12.7812 182.089 13 183.109 13.4375C184.13 13.875 184.932 14.5312 185.516 15.4062C186.109 16.2812 186.406 17.375 186.406 18.6875V25.9219C186.406 26.849 186.464 27.6094 186.578 28.2031C186.693 28.7865 186.859 29.2969 187.078 29.7344V30H182.531C182.312 29.5417 182.146 28.9688 182.031 28.2812C181.927 27.5833 181.875 26.8854 181.875 26.1875ZM182.469 19.7031L182.5 22.25H179.984C179.391 22.25 178.875 22.3177 178.438 22.4531C178 22.5885 177.641 22.7812 177.359 23.0312C177.078 23.2708 176.87 23.5521 176.734 23.875C176.609 24.1979 176.547 24.5521 176.547 24.9375C176.547 25.3229 176.635 25.6719 176.812 25.9844C176.99 26.2865 177.245 26.526 177.578 26.7031C177.911 26.8698 178.302 26.9531 178.75 26.9531C179.427 26.9531 180.016 26.8177 180.516 26.5469C181.016 26.276 181.401 25.9427 181.672 25.5469C181.953 25.151 182.099 24.776 182.109 24.4219L183.297 26.3281C183.13 26.7552 182.901 27.1979 182.609 27.6562C182.328 28.1146 181.969 28.5469 181.531 28.9531C181.094 29.349 180.568 29.6771 179.953 29.9375C179.339 30.1875 178.609 30.3125 177.766 30.3125C176.693 30.3125 175.719 30.099 174.844 29.6719C173.979 29.2344 173.292 28.6354 172.781 27.875C172.281 27.1042 172.031 26.2292 172.031 25.25C172.031 24.3646 172.198 23.5781 172.531 22.8906C172.865 22.2031 173.354 21.625 174 21.1562C174.656 20.6771 175.474 20.3177 176.453 20.0781C177.432 19.8281 178.568 19.7031 179.859 19.7031H182.469ZM194.375 16.5938V30H189.859V13.0938H194.094L194.375 16.5938ZM193.75 20.9531H192.5C192.5 19.776 192.641 18.6927 192.922 17.7031C193.214 16.7031 193.635 15.8385 194.188 15.1094C194.75 14.3698 195.443 13.7969 196.266 13.3906C197.089 12.9844 198.042 12.7812 199.125 12.7812C199.875 12.7812 200.562 12.8958 201.188 13.125C201.812 13.3438 202.349 13.6927 202.797 14.1719C203.255 14.6406 203.609 15.2552 203.859 16.0156C204.109 16.7656 204.234 17.6667 204.234 18.7188V30H199.734V19.2188C199.734 18.4479 199.63 17.8542 199.422 17.4375C199.214 17.0208 198.917 16.7292 198.531 16.5625C198.156 16.3958 197.703 16.3125 197.172 16.3125C196.589 16.3125 196.078 16.4323 195.641 16.6719C195.214 16.9115 194.859 17.2448 194.578 17.6719C194.297 18.0885 194.089 18.5781 193.953 19.1406C193.818 19.7031 193.75 20.3073 193.75 20.9531ZM203.812 20.4375L202.203 20.6406C202.203 19.5365 202.339 18.5104 202.609 17.5625C202.891 16.6146 203.302 15.7812 203.844 15.0625C204.396 14.3438 205.078 13.7865 205.891 13.3906C206.703 12.9844 207.641 12.7812 208.703 12.7812C209.516 12.7812 210.255 12.901 210.922 13.1406C211.589 13.3698 212.156 13.7396 212.625 14.25C213.104 14.75 213.469 15.4062 213.719 16.2188C213.979 17.0312 214.109 18.026 214.109 19.2031V30H209.594V19.2031C209.594 18.4219 209.49 17.8281 209.281 17.4219C209.083 17.0052 208.792 16.7188 208.406 16.5625C208.031 16.3958 207.583 16.3125 207.062 16.3125C206.521 16.3125 206.047 16.4219 205.641 16.6406C205.234 16.849 204.896 17.1406 204.625 17.5156C204.354 17.8906 204.151 18.3281 204.016 18.8281C203.88 19.3177 203.812 19.8542 203.812 20.4375ZM222.094 16.3438V36.5H217.594V13.0938H221.766L222.094 16.3438ZM232.797 21.3594V21.6875C232.797 22.9167 232.651 24.0573 232.359 25.1094C232.078 26.1615 231.661 27.0781 231.109 27.8594C230.557 28.6302 229.87 29.2344 229.047 29.6719C228.234 30.099 227.297 30.3125 226.234 30.3125C225.203 30.3125 224.307 30.1042 223.547 29.6875C222.786 29.2708 222.146 28.6875 221.625 27.9375C221.115 27.1771 220.703 26.2969 220.391 25.2969C220.078 24.2969 219.839 23.224 219.672 22.0781V21.2188C219.839 19.9896 220.078 18.8646 220.391 17.8438C220.703 16.8125 221.115 15.9219 221.625 15.1719C222.146 14.4115 222.781 13.8229 223.531 13.4062C224.292 12.9896 225.182 12.7812 226.203 12.7812C227.276 12.7812 228.219 12.9844 229.031 13.3906C229.854 13.7969 230.542 14.3802 231.094 15.1406C231.656 15.901 232.078 16.8073 232.359 17.8594C232.651 18.9115 232.797 20.0781 232.797 21.3594ZM228.281 21.6875V21.3594C228.281 20.6406 228.219 19.9792 228.094 19.375C227.979 18.7604 227.792 18.224 227.531 17.7656C227.281 17.3073 226.948 16.9531 226.531 16.7031C226.125 16.4427 225.63 16.3125 225.047 16.3125C224.432 16.3125 223.906 16.4115 223.469 16.6094C223.042 16.8073 222.693 17.0938 222.422 17.4688C222.151 17.8438 221.948 18.2917 221.812 18.8125C221.677 19.3333 221.594 19.9219 221.562 20.5781V22.75C221.615 23.5208 221.76 24.2135 222 24.8281C222.24 25.4323 222.609 25.9115 223.109 26.2656C223.609 26.6198 224.266 26.7969 225.078 26.7969C225.672 26.7969 226.172 26.6667 226.578 26.4062C226.984 26.1354 227.312 25.7656 227.562 25.2969C227.823 24.8281 228.005 24.2865 228.109 23.6719C228.224 23.0573 228.281 22.3958 228.281 21.6875ZM240.344 13.0938V30H235.828V13.0938H240.344ZM235.547 8.6875C235.547 8.03125 235.776 7.48958 236.234 7.0625C236.693 6.63542 237.307 6.42188 238.078 6.42188C238.839 6.42188 239.448 6.63542 239.906 7.0625C240.375 7.48958 240.609 8.03125 240.609 8.6875C240.609 9.34375 240.375 9.88542 239.906 10.3125C239.448 10.7396 238.839 10.9531 238.078 10.9531C237.307 10.9531 236.693 10.7396 236.234 10.3125C235.776 9.88542 235.547 9.34375 235.547 8.6875ZM243.344 21.7188V21.3906C243.344 20.151 243.521 19.0104 243.875 17.9688C244.229 16.9167 244.745 16.0052 245.422 15.2344C246.099 14.4635 246.932 13.8646 247.922 13.4375C248.911 13 250.047 12.7812 251.328 12.7812C252.609 12.7812 253.75 13 254.75 13.4375C255.75 13.8646 256.589 14.4635 257.266 15.2344C257.953 16.0052 258.474 16.9167 258.828 17.9688C259.182 19.0104 259.359 20.151 259.359 21.3906V21.7188C259.359 22.9479 259.182 24.0885 258.828 25.1406C258.474 26.1823 257.953 27.0938 257.266 27.875C256.589 28.6458 255.755 29.2448 254.766 29.6719C253.776 30.099 252.641 30.3125 251.359 30.3125C250.078 30.3125 248.938 30.099 247.938 29.6719C246.948 29.2448 246.109 28.6458 245.422 27.875C244.745 27.0938 244.229 26.1823 243.875 25.1406C243.521 24.0885 243.344 22.9479 243.344 21.7188ZM247.844 21.3906V21.7188C247.844 22.4271 247.906 23.0885 248.031 23.7031C248.156 24.3177 248.354 24.8594 248.625 25.3281C248.906 25.7865 249.271 26.1458 249.719 26.4062C250.167 26.6667 250.714 26.7969 251.359 26.7969C251.984 26.7969 252.521 26.6667 252.969 26.4062C253.417 26.1458 253.776 25.7865 254.047 25.3281C254.318 24.8594 254.516 24.3177 254.641 23.7031C254.776 23.0885 254.844 22.4271 254.844 21.7188V21.3906C254.844 20.7031 254.776 20.0573 254.641 19.4531C254.516 18.8385 254.312 18.2969 254.031 17.8281C253.76 17.349 253.401 16.974 252.953 16.7031C252.505 16.4323 251.964 16.2969 251.328 16.2969C250.693 16.2969 250.151 16.4323 249.703 16.7031C249.266 16.974 248.906 17.349 248.625 17.8281C248.354 18.2969 248.156 18.8385 248.031 19.4531C247.906 20.0573 247.844 20.7031 247.844 21.3906ZM266.531 16.7031V30H262.031V13.0938H266.25L266.531 16.7031ZM265.875 20.9531H264.656C264.656 19.7031 264.818 18.5781 265.141 17.5781C265.464 16.5677 265.917 15.7083 266.5 15C267.083 14.2812 267.776 13.7344 268.578 13.3594C269.391 12.974 270.297 12.7812 271.297 12.7812C272.089 12.7812 272.812 12.8958 273.469 13.125C274.125 13.3542 274.688 13.7188 275.156 14.2188C275.635 14.7188 276 15.3802 276.25 16.2031C276.51 17.026 276.641 18.0312 276.641 19.2188V30H272.109V19.2031C272.109 18.4531 272.005 17.8698 271.797 17.4531C271.589 17.0365 271.281 16.7448 270.875 16.5781C270.479 16.401 269.99 16.3125 269.406 16.3125C268.802 16.3125 268.276 16.4323 267.828 16.6719C267.391 16.9115 267.026 17.2448 266.734 17.6719C266.453 18.0885 266.24 18.5781 266.094 19.1406C265.948 19.7031 265.875 20.3073 265.875 20.9531ZM289.203 25.3281C289.203 25.0052 289.109 24.7135 288.922 24.4531C288.734 24.1927 288.385 23.9531 287.875 23.7344C287.375 23.5052 286.651 23.2969 285.703 23.1094C284.849 22.9219 284.052 22.6875 283.312 22.4062C282.583 22.1146 281.948 21.7656 281.406 21.3594C280.875 20.9531 280.458 20.474 280.156 19.9219C279.854 19.3594 279.703 18.7188 279.703 18C279.703 17.2917 279.854 16.625 280.156 16C280.469 15.375 280.911 14.8229 281.484 14.3438C282.068 13.8542 282.776 13.474 283.609 13.2031C284.453 12.9219 285.401 12.7812 286.453 12.7812C287.922 12.7812 289.182 13.0156 290.234 13.4844C291.297 13.9531 292.109 14.599 292.672 15.4219C293.245 16.2344 293.531 17.1615 293.531 18.2031H289.031C289.031 17.7656 288.938 17.375 288.75 17.0312C288.573 16.6771 288.292 16.401 287.906 16.2031C287.531 15.9948 287.042 15.8906 286.438 15.8906C285.938 15.8906 285.505 15.9792 285.141 16.1562C284.776 16.3229 284.495 16.5521 284.297 16.8438C284.109 17.125 284.016 17.4375 284.016 17.7812C284.016 18.0417 284.068 18.276 284.172 18.4844C284.286 18.6823 284.469 18.8646 284.719 19.0312C284.969 19.1979 285.292 19.3542 285.688 19.5C286.094 19.6354 286.594 19.7604 287.188 19.875C288.406 20.125 289.495 20.4531 290.453 20.8594C291.411 21.2552 292.172 21.7969 292.734 22.4844C293.297 23.1615 293.578 24.0521 293.578 25.1562C293.578 25.9062 293.411 26.5938 293.078 27.2188C292.745 27.8438 292.266 28.3906 291.641 28.8594C291.016 29.3177 290.266 29.6771 289.391 29.9375C288.526 30.1875 287.552 30.3125 286.469 30.3125C284.896 30.3125 283.562 30.0312 282.469 29.4688C281.385 28.9062 280.562 28.1927 280 27.3281C279.448 26.4531 279.172 25.5573 279.172 24.6406H283.438C283.458 25.2552 283.615 25.75 283.906 26.125C284.208 26.5 284.589 26.7708 285.047 26.9375C285.516 27.1042 286.021 27.1875 286.562 27.1875C287.146 27.1875 287.63 27.1094 288.016 26.9531C288.401 26.7865 288.693 26.5677 288.891 26.2969C289.099 26.0156 289.203 25.6927 289.203 25.3281ZM300.891 6V30H296.391V6H300.891ZM300.25 20.9531H299.016C299.026 19.776 299.182 18.6927 299.484 17.7031C299.786 16.7031 300.219 15.8385 300.781 15.1094C301.344 14.3698 302.016 13.7969 302.797 13.3906C303.589 12.9844 304.464 12.7812 305.422 12.7812C306.255 12.7812 307.01 12.901 307.688 13.1406C308.375 13.3698 308.964 13.7448 309.453 14.2656C309.953 14.776 310.339 15.4479 310.609 16.2812C310.88 17.1146 311.016 18.125 311.016 19.3125V30H306.484V19.2812C306.484 18.5312 306.375 17.9427 306.156 17.5156C305.948 17.0781 305.641 16.7708 305.234 16.5938C304.839 16.4062 304.349 16.3125 303.766 16.3125C303.12 16.3125 302.568 16.4323 302.109 16.6719C301.661 16.9115 301.302 17.2448 301.031 17.6719C300.76 18.0885 300.562 18.5781 300.438 19.1406C300.312 19.7031 300.25 20.3073 300.25 20.9531ZM319.188 13.0938V30H314.672V13.0938H319.188ZM314.391 8.6875C314.391 8.03125 314.62 7.48958 315.078 7.0625C315.536 6.63542 316.151 6.42188 316.922 6.42188C317.682 6.42188 318.292 6.63542 318.75 7.0625C319.219 7.48958 319.453 8.03125 319.453 8.6875C319.453 9.34375 319.219 9.88542 318.75 10.3125C318.292 10.7396 317.682 10.9531 316.922 10.9531C316.151 10.9531 315.536 10.7396 315.078 10.3125C314.62 9.88542 314.391 9.34375 314.391 8.6875ZM327.406 16.3438V36.5H322.906V13.0938H327.078L327.406 16.3438ZM338.109 21.3594V21.6875C338.109 22.9167 337.964 24.0573 337.672 25.1094C337.391 26.1615 336.974 27.0781 336.422 27.8594C335.87 28.6302 335.182 29.2344 334.359 29.6719C333.547 30.099 332.609 30.3125 331.547 30.3125C330.516 30.3125 329.62 30.1042 328.859 29.6875C328.099 29.2708 327.458 28.6875 326.938 27.9375C326.427 27.1771 326.016 26.2969 325.703 25.2969C325.391 24.2969 325.151 23.224 324.984 22.0781V21.2188C325.151 19.9896 325.391 18.8646 325.703 17.8438C326.016 16.8125 326.427 15.9219 326.938 15.1719C327.458 14.4115 328.094 13.8229 328.844 13.4062C329.604 12.9896 330.495 12.7812 331.516 12.7812C332.589 12.7812 333.531 12.9844 334.344 13.3906C335.167 13.7969 335.854 14.3802 336.406 15.1406C336.969 15.901 337.391 16.8073 337.672 17.8594C337.964 18.9115 338.109 20.0781 338.109 21.3594ZM333.594 21.6875V21.3594C333.594 20.6406 333.531 19.9792 333.406 19.375C333.292 18.7604 333.104 18.224 332.844 17.7656C332.594 17.3073 332.26 16.9531 331.844 16.7031C331.438 16.4427 330.943 16.3125 330.359 16.3125C329.745 16.3125 329.219 16.4115 328.781 16.6094C328.354 16.8073 328.005 17.0938 327.734 17.4688C327.464 17.8438 327.26 18.2917 327.125 18.8125C326.99 19.3333 326.906 19.9219 326.875 20.5781V22.75C326.927 23.5208 327.073 24.2135 327.312 24.8281C327.552 25.4323 327.922 25.9115 328.422 26.2656C328.922 26.6198 329.578 26.7969 330.391 26.7969C330.984 26.7969 331.484 26.6667 331.891 26.4062C332.297 26.1354 332.625 25.7656 332.875 25.2969C333.135 24.8281 333.318 24.2865 333.422 23.6719C333.536 23.0573 333.594 22.3958 333.594 21.6875Z" fill="#C1A380"/>
<path d="M357.75 34.8333V28.5C357.75 27.6292 358.06 26.8834 358.681 26.2627C359.302 25.6421 360.047 25.3323 360.917 25.3333H362.975L363.846 19H359.333V15.8333H384.667V19H380.154L381.025 25.3333H383.083C383.954 25.3333 384.7 25.6437 385.321 26.2643C385.941 26.885 386.251 27.6302 386.25 28.5V34.8333H357.75ZM363.212 13.4583L360.917 3.16666C361.788 3.82638 362.685 4.44652 363.608 5.02707C364.532 5.60763 365.548 5.89791 366.656 5.89791C367.712 5.89791 368.682 5.62716 369.566 5.08566C370.451 4.54416 371.262 3.90449 372 3.16666C372.739 3.90555 373.551 4.54574 374.435 5.08724C375.32 5.62874 376.289 5.89896 377.344 5.89791C378.452 5.89791 379.468 5.60763 380.392 5.02707C381.315 4.44652 382.213 3.82638 383.083 3.16666L380.827 13.4583H363.212Z" fill="black"/>
</svg>
