<svg width="38" height="38" viewBox="0 0 38 38" fill="none" xmlns="http://www.w3.org/2000/svg">
<circle cx="19" cy="19" r="35" fill="#C1A380"/>
<path d="M4.75 34.8333V28.5C4.75 27.6292 5.06033 26.8834 5.681 26.2627C6.30167 25.6421 7.04689 25.3323 7.91667 25.3333H9.975L10.8458 19H6.33333V15.8333H31.6667V19H27.1542L28.025 25.3333H30.0833C30.9542 25.3333 31.6999 25.6437 32.3206 26.2643C32.9413 26.885 33.2511 27.6302 33.25 28.5V34.8333H4.75ZM10.2125 13.4583L7.91667 3.16666C8.7875 3.82638 9.68472 4.44652 10.6083 5.02707C11.5319 5.60763 12.5479 5.89791 13.6563 5.89791C14.7118 5.89791 15.6819 5.62716 16.5664 5.08566C17.451 4.54416 18.2622 3.90449 19 3.16666C19.7389 3.90555 20.5506 4.54574 21.4352 5.08724C22.3197 5.62874 23.2893 5.89896 24.3438 5.89791C25.4521 5.89791 26.4681 5.60763 27.3917 5.02707C28.3153 4.44652 29.2125 3.82638 30.0833 3.16666L27.8271 13.4583H10.2125Z" fill="white"/>
</svg>
